<?xml version="1.0" encoding="UTF-8"?>
<svg id="Layer_1" xmlns="http://www.w3.org/2000/svg" viewBox="0 0 133.34 55.49">
  <defs>
    <style>
      .cls-1 {
        fill: #fff;
      }
    </style>
  </defs>
  <rect x="-10.93" y="-10.66" width="153.22" height="73.41"/>
  <g>
    <polygon class="cls-1" points="49.24 33.24 43.24 33.24 43.24 19.24 38.48 19.24 31.24 26.48 24 19.24 19.24 19.24 19.24 33.24 13.24 33.24 13.24 13.24 26.48 13.24 31.24 18 36 13.24 49.24 13.24 49.24 33.24"/>
    <polygon class="cls-1" points="31.24 49.48 24 42.24 13.24 42.24 13.24 36.24 26.48 36.24 31.24 41 36 36.24 49.24 36.24 49.24 42.24 38.48 42.24 31.24 49.48"/>
    <g>
      <path class="cls-1" d="M61.48,13.13c.72,0,1.3.17,1.73.47v1.73c-.48-.37-1.01-.55-1.59-.55-1.14,0-1.85.69-1.85,1.87s.71,1.86,1.85,1.86c.57,0,1.1-.16,1.59-.54v1.73c-.43.3-1.01.47-1.73.47-2.07,0-3.49-1.39-3.49-3.52s1.42-3.52,3.49-3.52Z"/>
      <path class="cls-1" d="M69.44,14.77h-3.12v1.06h2.85v1.5h-2.85v1.18h3.12v1.54h-4.87v-6.81h4.87v1.53Z"/>
      <path class="cls-1" d="M72.56,20.05h-1.76v-6.81h3.06c1.46,0,2.47.84,2.47,2.32,0,1.03-.51,1.74-1.35,2.05l1.6,2.44h-1.97l-1.42-2.25h-.62v2.25ZM73.67,16.38c.63,0,.92-.32.92-.82s-.29-.82-.92-.82h-1.11v1.64h1.11Z"/>
      <path class="cls-1" d="M83.14,13.24v1.53h-2.11v5.28h-1.79v-5.28h-2.1v-1.53h5.99Z"/>
      <path class="cls-1" d="M90.53,13.24l-2.46,4.39v2.42h-1.79v-2.42l-2.42-4.39h1.93l1.43,2.66,1.43-2.66h1.87Z"/>
      <path class="cls-1" d="M91.4,13.24h4.79v1.54h-3.03v1.35h2.78v1.51h-2.78v2.41h-1.76v-6.81Z"/>
      <path class="cls-1" d="M97.4,20.05v-6.81h1.79v6.81h-1.79Z"/>
      <path class="cls-1" d="M104.58,13.24h2.07l-2.51,3.26,2.61,3.55h-2.11l-2.23-3.05v3.05h-1.79v-6.81h1.79v2.9l2.16-2.9Z"/>
      <path class="cls-1" d="M114.42,20.05h-1.81l-.49-1.32h-2.47l-.48,1.32h-1.76l2.6-6.81h1.82l2.6,6.81ZM111.59,17.27l-.7-1.92-.7,1.92h1.4Z"/>
      <path class="cls-1" d="M120.18,13.24v1.53h-2.11v5.28h-1.79v-5.28h-2.1v-1.53h5.99Z"/>
      <path class="cls-1" d="M60.83,24.34c2.13,0,3.44,1.32,3.44,3.41s-1.31,3.41-3.44,3.41h-2.57v-6.81h2.57ZM62.5,27.75c0-1.15-.62-1.87-1.76-1.87h-.73v3.74h.73c1.14,0,1.76-.71,1.76-1.86Z"/>
      <path class="cls-1" d="M67.05,24.34v5.27h3.05v1.54h-4.84v-6.81h1.79Z"/>
      <path class="cls-1" d="M77.73,31.15h-1.81l-.49-1.32h-2.47l-.48,1.32h-1.76l2.6-6.81h1.82l2.6,6.81ZM74.9,28.37l-.7-1.92-.7,1.92h1.4Z"/>
      <path class="cls-1" d="M82.59,27.25v3.9h-1.74v-6.81h1.65l1.86,2.77,1.87-2.77h1.64v6.81h-1.75v-3.9l-1.74,2.44h-.04l-1.75-2.44Z"/>
      <path class="cls-1" d="M95.62,31.15h-1.81l-.49-1.32h-2.47l-.48,1.32h-1.76l2.6-6.81h1.82l2.6,6.81ZM92.79,28.37l-.7-1.92-.7,1.92h1.4Z"/>
      <path class="cls-1" d="M96.42,27.4v-3.06h1.79v2.41l1.34-.54v1.39l-1.34.53v1.49h3.05v1.54h-4.84v-2.36l-.54.21v-1.38l.54-.22Z"/>
      <path class="cls-1" d="M107.48,24.34l-2.46,4.39v2.42h-1.79v-2.42l-2.42-4.39h1.93l1.43,2.66,1.43-2.66h1.88Z"/>
      <path class="cls-1" d="M110.96,24.23c.72,0,1.3.17,1.73.47v1.73c-.48-.37-1.01-.55-1.59-.55-1.14,0-1.85.69-1.85,1.87s.71,1.86,1.85,1.86c.57,0,1.1-.16,1.59-.54v1.73c-.43.3-1.01.47-1.73.47-2.07,0-3.49-1.39-3.49-3.52s1.42-3.52,3.49-3.52Z"/>
      <path class="cls-1" d="M120.1,31.15h-1.79v-2.7h-2.63v2.7h-1.79v-6.81h1.79v2.58h2.63v-2.58h1.79v6.81Z"/>
      <path class="cls-1" d="M62.2,35.44h2.07l-2.51,3.26,2.61,3.55h-2.11l-2.23-3.05v3.05h-1.79v-6.81h1.79v2.9l2.16-2.9Z"/>
      <path class="cls-1" d="M67.24,40.87c.57,0,1.05-.11,1.05-.54,0-.34-.21-.44-.58-.58l-1.03-.3c-1.15-.34-1.77-.89-1.77-2.03,0-1.35,1.14-2.1,2.57-2.1.93,0,1.58.2,2.14.51v1.64c-.62-.43-1.28-.68-2.06-.68-.52,0-.9.14-.9.49,0,.31.21.42.57.54l1.03.31c1.25.39,1.81,1.03,1.81,2.09,0,1.46-1.25,2.13-2.78,2.13-.92,0-1.73-.26-2.23-.55v-1.64c.59.4,1.42.71,2.19.71Z"/>
      <path class="cls-1" d="M71.19,42.25v-6.81h1.79v6.81h-1.79Z"/>
      <path class="cls-1" d="M79.26,36.97h-3.12v1.06h2.85v1.5h-2.85v1.18h3.12v1.54h-.39c-.43.52-.55.65-.55.83,0,.14.07.21.21.21.13,0,.21-.04.39-.17v.97c-.21.12-.41.21-.72.21-.59,0-1.02-.3-1.02-.88,0-.43.28-.79.62-1.18h-3.41v-6.81h4.87v1.53Z"/>
      <path class="cls-1" d="M84.56,40.53v-.67h-.99v-1.42h2.56v3.01c-.7.63-1.56.91-2.51.91-2.14,0-3.46-1.44-3.46-3.5s1.48-3.54,3.64-3.54c.75,0,1.48.21,1.97.53v1.73c-.52-.39-1.13-.62-1.97-.62-1.09,0-1.85.72-1.85,1.9s.71,1.91,1.73,1.91c.37,0,.67-.08.88-.24Z"/>
      <path class="cls-1" d="M93.81,42.25h-1.81l-.49-1.32h-2.47l-.48,1.32h-1.76l2.6-6.81h1.82l2.6,6.81ZM90.98,39.47l-.7-1.92-.7,1.92h1.4Z"/>
      <path class="cls-1" d="M96.42,42.25h-1.76v-6.81h3.06c1.46,0,2.47.84,2.47,2.32,0,1.03-.51,1.74-1.35,2.05l1.6,2.44h-1.97l-1.42-2.25h-.62v2.25ZM97.53,38.58c.63,0,.92-.32.92-.82s-.29-.82-.92-.82h-1.11v1.64h1.11Z"/>
      <path class="cls-1" d="M105.95,42.25l-2.85-3.98v3.98h-1.72v-6.81h1.66l2.63,3.75v-3.75h1.72v6.81h-1.44Z"/>
      <path class="cls-1" d="M108.83,42.25v-6.81h1.79v6.81h-1.79Z"/>
    </g>
  </g>
</svg>